<?xml version="1.0" standalone="no"?>
<!DOCTYPE svg PUBLIC "-//W3C//DTD SVG 20010904//EN"
 "http://www.w3.org/TR/2001/REC-SVG-20010904/DTD/svg10.dtd">
<svg version="1.0" xmlns="http://www.w3.org/2000/svg"
 width="500.000000pt" height="500.000000pt" viewBox="0 0 500.000000 500.000000"
 preserveAspectRatio="xMidYMid meet">
<metadata>
Created by potrace 1.11, written by Peter Selinger 2001-2013
</metadata>
<g transform="translate(0.000000,500.000000) scale(0.100000,-0.100000)"
fill="#000000" stroke="none">
<path d="M0 2500 l0 -2500 2500 0 2500 0 0 2500 0 2500 -2500 0 -2500 0 0
-2500z m2670 1765 c208 -39 469 -45 749 -16 266 27 353 27 428 0 161 -60 395
-190 453 -253 24 -27 25 -32 25 -179 0 -147 -1 -154 -28 -206 -15 -30 -65 -98
-111 -150 -472 -545 -814 -1276 -935 -1996 -27 -158 -38 -259 -51 -435 -13
-170 -20 -199 -69 -253 -72 -80 -45 -77 -681 -77 -527 0 -568 2 -605 19 -49
22 -91 63 -117 116 -20 37 -20 52 -15 285 16 736 200 1324 514 1651 l83 86
-103 6 c-72 5 -133 16 -202 37 -308 95 -450 53 -469 -138 -8 -82 -34 -140 -86
-192 -78 -78 -106 -85 -340 -85 -195 0 -208 1 -258 24 -31 14 -70 43 -96 72
-79 88 -76 59 -76 799 0 729 -2 709 66 789 20 23 57 53 82 69 47 27 48 27 264
30 243 4 257 1 352 -72 60 -46 83 -46 234 0 262 79 432 104 672 100 136 -3
207 -10 320 -31z"/>
<path d="M2063 4164 c-117 -17 -238 -45 -379 -89 -62 -19 -131 -35 -155 -35
-47 0 -135 36 -158 64 -39 47 -82 53 -327 48 -146 -2 -175 -13 -221 -81 l-23
-34 0 -654 c0 -631 1 -655 20 -692 11 -22 36 -50 57 -62 35 -22 50 -24 208
-27 185 -4 225 3 275 44 42 36 51 57 61 140 13 115 68 202 158 249 86 44 244
40 416 -11 50 -14 113 -31 140 -36 48 -10 249 -6 386 8 54 5 68 4 83 -11 25
-26 17 -66 -19 -88 -263 -160 -383 -291 -509 -558 -149 -316 -231 -719 -252
-1235 -7 -189 -1 -229 43 -264 25 -20 39 -20 582 -20 608 0 584 -2 615 58 7
16 16 80 20 152 19 350 96 742 215 1094 179 528 477 1050 818 1433 83 93 95
124 101 254 l4 106 -52 38 c-65 48 -274 154 -359 183 -58 20 -71 21 -202 11
-77 -5 -173 -14 -212 -19 -40 -6 -151 -13 -247 -16 -191 -7 -305 2 -538 42
-165 28 -391 31 -549 8z m587 -129 c80 -14 211 -29 293 -33 115 -6 151 -11
163 -24 22 -22 21 -68 -2 -85 -36 -26 -252 -12 -519 34 -134 22 -168 25 -315
20 -188 -6 -323 -31 -533 -97 -198 -62 -317 -54 -317 20 0 42 34 60 113 60 54
0 95 7 158 29 328 110 634 135 959 76z m-1356 -17 c20 -29 20 -41 -1 -67 -19
-23 -50 -27 -201 -30 l-72 -1 2 -542 3 -543 84 0 84 0 13 55 c29 126 100 235
199 305 172 123 392 134 714 35 75 -24 186 -26 343 -6 126 16 182 9 248 -32
91 -56 149 -173 136 -275 -15 -109 -70 -180 -191 -246 -336 -185 -544 -680
-594 -1419 -6 -85 -11 -164 -11 -178 l0 -24 403 0 403 0 10 125 c6 70 17 131
24 140 7 8 27 15 46 15 54 0 58 -18 43 -203 -11 -130 -17 -165 -31 -179 -17
-17 -49 -18 -492 -18 -261 0 -482 3 -491 6 -31 12 -35 50 -25 242 46 840 267
1379 655 1592 76 42 104 67 121 107 36 85 0 184 -82 223 -45 22 -48 22 -152 9
-59 -8 -159 -14 -222 -13 -100 0 -128 4 -220 32 -343 106 -586 42 -691 -182
-19 -40 -32 -88 -36 -129 -9 -100 -10 -100 -207 -101 -124 -1 -167 2 -179 13
-16 12 -17 68 -17 647 0 562 2 634 16 648 13 13 44 16 184 16 163 0 169 -1
184 -22z m2611 -46 c71 -35 144 -74 162 -88 31 -24 33 -28 33 -90 0 -77 -5
-89 -80 -174 -154 -175 -334 -432 -471 -670 -239 -418 -410 -874 -504 -1345
-17 -85 -32 -134 -42 -142 -25 -19 -57 -16 -78 7 -18 20 -18 24 -1 118 128
727 515 1538 994 2089 40 46 72 92 72 103 0 17 -26 33 -130 84 -115 56 -135
63 -175 58 -58 -6 -95 16 -95 58 0 46 32 62 115 58 62 -3 85 -10 200 -66z
m-457 32 c27 -19 29 -64 5 -86 -11 -9 -48 -19 -91 -23 -83 -8 -112 6 -112 55
0 47 20 55 160 69 9 0 26 -6 38 -15z"/>
</g>
</svg>
